<svg width="35" height="34" viewBox="0 0 35 34" fill="none" xmlns="http://www.w3.org/2000/svg">
<path d="M17.5 24.534C20.5928 24.534 23.1 21.8712 23.1 18.5864C23.1 15.3016 20.5928 12.6388 17.5 12.6388C14.4072 12.6388 11.9 15.3016 11.9 18.5864C11.9 21.8712 14.4072 24.534 17.5 24.534Z" fill="#5F5F5F"/>
<path d="M12.25 0L9.0475 3.71728H3.5C1.575 3.71728 0 5.39006 0 7.43456V29.7382C0 31.7827 1.575 33.4555 3.5 33.4555H31.5C33.425 33.4555 35 31.7827 35 29.7382V7.43456C35 5.39006 33.425 3.71728 31.5 3.71728H25.9525L22.75 0H12.25ZM17.5 27.8796C12.67 27.8796 8.75 23.7162 8.75 18.5864C8.75 13.4566 12.67 9.2932 17.5 9.2932C22.33 9.2932 26.25 13.4566 26.25 18.5864C26.25 23.7162 22.33 27.8796 17.5 27.8796Z" fill="#5F5F5F"/>
</svg>
