<svg width="41" height="24" viewBox="0 0 41 24" fill="none" xmlns="http://www.w3.org/2000/svg">
<path d="M1.01018 1.20965C1.58449 0.635517 2.36331 0.312988 3.17537 0.312988C3.98744 0.312988 4.76625 0.635517 5.34056 1.20965L20.4999 16.369L35.6593 1.20965C36.2369 0.651788 37.0105 0.343104 37.8135 0.350082C38.6165 0.357059 39.3846 0.67914 39.9524 1.24695C40.5202 1.81476 40.8423 2.58288 40.8492 3.38585C40.8562 4.18883 40.5475 4.96243 39.9897 5.54002L22.6651 22.8646C22.0908 23.4387 21.312 23.7612 20.4999 23.7612C19.6879 23.7612 18.909 23.4387 18.3347 22.8646L1.01018 5.54002C0.436054 4.96572 0.113525 4.1869 0.113525 3.37483C0.113525 2.56277 0.436054 1.78395 1.01018 1.20965Z" fill="#CFCFCF"/>
</svg>
